<!-- Generator: Adobe Illustrator 19.2.1, SVG Export Plug-In  -->
<svg version="1.1"
	 xmlns="http://www.w3.org/2000/svg" xmlns:xlink="http://www.w3.org/1999/xlink" xmlns:a="http://ns.adobe.com/AdobeSVGViewerExtensions/3.0/"
	 x="0px" y="0px" width="629.2px" height="303.1px" viewBox="0 0 629.2 303.1" enable-background="new 0 0 629.2 303.1"
	 xml:space="preserve">
<defs>
</defs>
<g>
	<g>
		<path d="M386.5,4c0.4,1.4-0.4,2.4-2.1,2.8l-1.2,0.3c-1.8,0.2-4.1,0.6-6.7,1.3c-13.1,3.2-27.4,13-43,29.4
			c-8.9,9.3-16,18.4-21.3,27.2c-5.5,9-14.4,26.3-26.6,51.8c-14.7,30.8-26.9,52-36.6,63.6c-3.2,3.9-5.1,5.9-5.7,6
			c-0.3,0.1-0.5,0-0.6-0.2c0-0.1,0.6-1.1,1.8-3.2c5.4-9.1,9.3-25.3,11.8-48.4c2.2-20.7,4.2-35.8,6.1-45.5s4.3-18,7.5-25
			c0.7-1.6,1.1-2.5,1.1-2.7c-0.4,0-0.8,0.3-1.1,1l-0.6,1.1l-1.5,3.2c-2.6,5.5-8.4,19-17.6,40.3c-14.3,34.5-28,60.2-41.1,77.1
			c-7.1,9-11.3,13.7-12.7,14c-0.3,0-0.6-0.2-0.7-0.4c0-0.2,0.2-0.7,0.8-1.5c8.6-12.9,15.5-30.9,20.7-53.8
			c5.2-22.9,6.2-40.5,3.2-52.7c-2.1-8.3-5.7-14.4-10.9-18.3c-5.2-3.9-11.4-4.9-18.4-3.2c-14.7,3.6-27.3,15.5-37.8,35.5
			c-10.5,20-13.6,38.4-9.5,55.1c1.7,6.9,5,12.1,9.8,15.4c4.8,3.3,10.3,4.2,16.4,2.7c12.9-3.2,22.9-15,30-35.4
			c4.6-13.3,5.8-24.4,3.6-33.3c-1-4.2-2.9-7.3-5.6-9.4c-2.7-2-5.8-2.6-9.2-1.8c-2,0.5-3.9,1.5-5.6,3c-1.7,1.5-2.4,2.7-2.2,3.7
			c0.1,0.3,0.3,0.5,0.6,0.4c0.2,0,0.4-0.2,0.8-0.4c1.4-0.6,2.3-0.9,2.7-1c2.6-0.6,4.2,0.5,4.9,3.4c0.4,1.8,0.1,3.5-0.9,5.1
			c-1,1.6-2.5,2.7-4.3,3.1c-3.5,0.9-5.8-0.6-6.7-4.4c-0.7-3-0.1-6,2-8.9c2.1-2.9,4.8-4.8,8.2-5.6c3.9-1,7.4-0.3,10.5,1.9
			c3.1,2.3,5.2,5.8,6.4,10.5c2.6,10.7,0.7,24-5.7,39.8c-7.2,17.5-17,27.7-29.3,30.8c-7.2,1.8-13.7,0.5-19.7-3.9
			c-6-4.3-10-10.7-12.1-19.1c-1.9-7.8-1.9-16.5,0.2-26.1c2.1-9.6,5.9-18.7,11.4-27.5c12.4-19.9,26.1-31.7,41.1-35.4
			c8.8-2.2,17.1-0.5,24.8,4.9c7.7,5.4,12.8,13.2,15.3,23.3c2.7,10.9,1.5,25.2-3.7,42.9c-5.1,17.7-12.7,33.8-22.8,48.1
			c-1,1.4-1.4,2.2-1.4,2.3c0.1,0.2,0.3,0.3,0.4,0.3c1.8-0.4,6.2-6.8,13.3-19.1c10.1-17.4,22.9-44.1,38.4-80.2
			c4.4-10.3,9-19.7,13.7-28.2c4.7-8.5,7.7-12.9,9.2-13.2c0.3-0.1,0.6,0.1,0.6,0.4c0,0.2-0.1,0.5-0.3,1c-2.4,5.7-4.1,11.3-5.1,16.8
			c-1.1,6.3-2.3,17.8-3.5,34.6c-1.4,18.3-3.3,32.5-5.6,42.5c-2.5,10.3-6.5,20.1-11.9,29.3c-0.1,0.3-0.1,0.5-0.2,0.7
			c0.1,0.2,0.2,0.2,0.4,0.3c1-0.2,4.1-5,9.4-14.2c3.7-6.4,13.6-26.4,29.7-59.9c8.3-17.3,16.2-31.3,23.5-42
			c7.3-10.7,16-20.7,26.1-30.2C355.2,14,368,6.1,379.9,3.1C383.9,2.1,386.1,2.4,386.5,4z"/>
	</g>
</g>
<g>
	<g>
		<path d="M196.3,200.7l-0.5-0.1c-1.6-0.2-2.3-1.1-2.6-1.7l-0.2-0.3l-0.1-0.3c-0.3-1.3,0.4-2.4,1.2-3.6
			c8.4-12.5,15.2-30.4,20.3-52.9c5-22.4,6.1-39.7,3.2-51.5c-1.9-7.7-5.3-13.3-10-16.8c-4.6-3.4-9.9-4.3-16.2-2.8
			c-13.9,3.4-26.1,15-36.1,34.2c-10.1,19.4-13.2,37.3-9.3,53.3c1.6,6.4,4.5,10.9,8.8,13.9c4.2,2.9,8.9,3.7,14.3,2.4
			c11.9-2.9,21.4-14.3,28.2-33.8c4.4-12.7,5.6-23.5,3.6-31.8c-0.9-3.6-2.5-6.3-4.7-7.9c-2.1-1.6-4.4-2-7-1.4
			c-0.6,0.1-1.1,0.3-1.7,0.6c0.9,0.2,1.6,0.5,2.1,0.9c1.3,0.9,2.3,2.5,2.8,4.5c0.6,2.4,0.2,4.9-1.3,7.1c-1.4,2.2-3.4,3.6-5.8,4.2
			c-2.5,0.6-4.6,0.3-6.4-0.8c-1.7-1.1-2.8-2.9-3.5-5.5c-0.9-3.8-0.1-7.5,2.4-11c2.4-3.4,5.7-5.6,9.7-6.6c4.7-1.2,8.9-0.4,12.6,2.4
			c3.5,2.6,6,6.6,7.3,11.9c2.8,11.2,0.8,25.1-5.8,41.4c-7.5,18.2-18,29.1-31.1,32.3c-7.9,2-15.3,0.5-21.9-4.3
			c-6.5-4.7-10.9-11.6-13.1-20.5c-2-8.2-2-17.4,0.2-27.3c2.1-9.8,6.1-19.4,11.8-28.4c12.7-20.4,27.1-32.7,42.7-36.5
			c9.5-2.4,18.6-0.6,26.9,5.3c8.2,5.8,13.7,14.1,16.3,24.8c2.8,11.3,1.5,26.2-3.7,44.3c-0.2,0.6-0.3,1.1-0.5,1.7
			c7-14.4,14.9-31.8,23.6-51.9c4.5-10.4,9.1-19.9,13.8-28.4c7-12.6,9.1-14.1,10.9-14.5c0.9-0.2,1.7-0.1,2.5,0.4
			c0.5,0.3,1.1,0.9,1.3,1.9c0.3,1-0.1,2-0.5,2.7c-2.3,5.4-4,10.9-4.9,16.1c-1.1,6.1-2.3,17.7-3.5,34.3c-1.4,18.4-3.3,32.8-5.7,42.9
			c-0.2,0.6-0.3,1.3-0.5,1.9c5.2-10.4,13-26.2,23.2-47.5c8.3-17.4,16.3-31.6,23.7-42.3c7.4-10.8,16.3-21,26.5-30.6
			c14-13.2,27.3-21.4,39.6-24.5c5.7-1.4,9-0.5,9.8,2.8l0,0c0.5,2.1-0.2,5-4,5.9l-1.5,0.4c-1.7,0.2-3.9,0.6-6.4,1.2
			c-12.5,3.1-26.6,12.7-41.7,28.7c-8.7,9.1-15.8,18.1-21,26.8c-5.5,8.9-14.4,26.3-26.4,51.5c-14.7,30.8-27.2,52.4-36.9,64.1
			c-5,6-6,6.6-7.1,6.9c-1.4,0.4-2.8-0.2-3.5-1.5l-0.2-0.3l-0.1-0.3c-0.3-1.1-0.2-1.2,2.1-5.1c5.2-8.8,9-24.7,11.4-47.3
			c1.9-18.2,3.8-32.3,5.4-42.1c-2,4.7-4.3,9.9-6.8,15.7c-14.3,34.6-28.3,60.7-41.5,77.6c-11.2,14.2-13,14.7-14.2,14.9L196.3,200.7z
			 M197.8,198.5L197.8,198.5L197.8,198.5z M216.6,75.5c2.7,3.7,4.7,8.3,6,13.7c3.1,12.5,2,30.6-3.2,53.8c-2,9-4.3,17.3-6.9,24.8
			c5-9.6,9.2-19.9,12.3-30.8c5-17.2,6.2-31.2,3.7-41.6C226.4,87.1,222.4,80.4,216.6,75.5z M270.2,70c-2.1,5.7-3.9,12.3-5.3,19.6
			c-1.8,9.6-3.9,24.8-6,45.3c-1.2,11-2.6,20.4-4.5,28.3c3.2-6.7,5.7-13.6,7.4-20.8c2.3-9.8,4.2-24,5.5-42.1
			C268.3,86.9,269.3,76.7,270.2,70z M180.3,106.8c-0.1,0.9-0.1,1.8,0.2,2.7c0.3,1.2,0.8,2.1,1.3,2.4c0.5,0.3,1.3,0.4,2.3,0.1
			c1.2-0.3,2.1-0.9,2.8-2c0.7-1,0.8-2,0.6-3.1c-0.2-0.9-0.5-1.4-0.7-1.5c-0.2-0.2-0.8-0.1-1.1,0c-0.1,0-0.5,0.1-2.2,0.9
			c-0.5,0.3-0.9,0.5-1.3,0.6C181.5,107,180.9,106.9,180.3,106.8z M384.1,4.7C384.1,4.7,384.1,4.7,384.1,4.7l2.5-0.7L384.1,4.7
			C384.1,4.7,384.1,4.7,384.1,4.7z"/>
	</g>
</g>
<g>
	<g>
		<path d="M175.8,158.2c0.9,2.9,1.5,6.2,1.7,9.9c0.3,3.7,0,5.7-0.7,5.9c-0.6,0.2-0.9,0-1.1-0.6c-0.1-0.2-0.1-0.4-0.1-0.8
			c0.3-4.4-0.2-8.8-1.6-13.4c-2.1-7.1-5.9-12.1-11.5-15.1s-11.7-3.5-18.6-1.4c-9.3,2.8-18,8.8-26,17.9c10.4,4.2,17,10.6,19.5,19.1
			c2.2,7.2,1.2,14.3-3,21.4c-4.2,7.1-10.1,11.8-17.8,14.1c-3,0.9-6.5,1.3-10.3,1.1c-3.8-0.2-5.9-0.8-6.2-1.9c0-0.4,0.2-0.6,0.5-0.7
			c0.3-0.1,0.8,0,1.5,0.1c4.1,0.9,7.9,0.9,11.4-0.2c6.4-1.9,11-6.3,13.9-13.2c2.9-6.9,3.2-14.1,0.9-21.8c-2-6.6-6.1-11.7-12.4-15.5
			c-9.4,12.8-16.2,32.2-20.2,58.4c-2.4,15.9-5.5,27.7-9.1,35.4c-3.7,7.8-9.7,15.6-18.1,23.6c-10,9.3-19.6,15.3-28.8,18.1
			c-7.5,2.3-14.3,2.4-20.3,0.5s-9.8-5.5-11.4-10.7c-0.9-2.9-0.8-5.6,0.3-8.2c1.1-2.6,2.8-4.2,5.2-5c3.4-1,5.7,0.4,6.9,4.2
			c0.6,1.9,0.5,3.7-0.3,5.4c-0.7,1.7-2,2.8-3.6,3.3c-2.9,0.9-4.8-0.2-5.6-3.3c-0.3-1.2-0.6-1.8-0.9-1.7c-0.9,0.3-0.9,1.9,0,4.9
			c1.4,4.7,4.9,7.8,10.4,9.5c5.5,1.7,11.7,1.5,18.7-0.6c12.3-3.7,22-11.6,29.3-23.7c3.2-5.3,5.7-10.5,7.5-15.6
			c2-5.5,6.1-18.6,12.2-39.3c3.1-10.2,7.2-20.8,12.3-31.7s9.8-19,14-24.3c-11-4.8-25-4.7-41.9,0.4c-23.7,7.1-41.7,21.9-54,44.3
			C8.4,225.5,5.2,240.9,9,253.3c1.9,6.3,5.4,10.7,10.6,13.1c5.2,2.5,11.2,2.7,18.1,0.6c11.3-3.4,21.3-12.3,30.1-26.8
			c8.8-14.5,11.6-26.8,8.5-37c-2.5-8.1-7.9-10.9-16.2-8.4c-8.4,2.5-15.9,9.9-22.7,22.1c-6.7,12.2-8.9,22.4-6.4,30.6
			c0.6,2,1.8,3.6,3.6,4.6c1.8,1.1,3.6,1.3,5.4,0.8c1-0.3,1.5-0.2,1.7,0.3c0.1,0.5-0.3,0.8-1.4,1.2c-2.7,0.8-5.4,0.3-7.9-1.6
			c-2.6-1.9-4.4-4.6-5.5-8.1c-2.6-8.7-0.4-18.7,6.7-29.9c7.1-11.2,15.7-18.3,25.8-21.4c9.6-2.9,15.8,0.1,18.5,9
			c3.3,10.9,0.5,23.7-8.5,38.5c-8.9,14.8-19.4,24-31.3,27.6c-7.8,2.4-14.7,1.9-20.8-1.4C11,264,6.8,258.4,4.4,250.6
			c-4.8-15.9-0.2-33.1,13.8-51.6c14-18.5,31.8-31,53.5-37.6c16.5-5,31.5-5.5,44.9-1.5c8.3-9.5,17.3-15.7,26.9-18.6
			c7.5-2.3,14.2-1.9,20.2,1.2C169.6,145.6,173.6,150.8,175.8,158.2z"/>
	</g>
</g>
<g>
	<g>
		<path d="M28.4,303.1c-3.4,0-6.6-0.5-9.6-1.5c-6.9-2.2-11.3-6.4-13.1-12.4c-1-3.4-0.9-6.8,0.4-9.9c1.4-3.3,3.7-5.5,6.8-6.4
			c2.4-0.7,4.6-0.6,6.4,0.5c1.7,1,2.9,2.8,3.7,5.4c0.8,2.5,0.6,4.9-0.4,7.2c-1,2.4-2.9,4-5.3,4.7c-1,0.3-1.9,0.4-2.7,0.4
			c1.5,1.8,3.7,3.2,6.7,4.1c5,1.5,10.8,1.3,17.2-0.6c11.6-3.5,21-11.1,27.8-22.6c3.1-5.1,5.5-10.2,7.3-15.1
			c2-5.4,6.1-18.6,12.1-39.2c3.1-10.3,7.3-21.1,12.4-32.1c4.3-9.3,8.5-16.7,12.3-22.1c-9.9-3.3-22.4-2.7-37.1,1.7
			c-22.9,6.9-40.6,21.4-52.5,43.1c-9.7,17.6-12.9,32.5-9.4,44.2c1.7,5.6,4.7,9.4,9.2,11.6c4.5,2.2,10,2.3,16.2,0.5
			c10.6-3.2,20.2-11.8,28.6-25.7c8.3-13.7,11.1-25.5,8.3-34.9c-2-6.7-6-8.8-13-6.7c-7.7,2.3-14.8,9.3-21.2,20.9
			c-6.4,11.5-8.5,21.2-6.2,28.6c0.4,1.4,1.2,2.4,2.4,3.1c1.2,0.7,2.2,0.9,3.4,0.5c3.8-1.1,4.8,1.7,4.9,2c0.2,0.5,0.7,3.2-3.1,4.4
			c-3.5,1.1-6.9,0.4-10.2-2c-3-2.2-5.2-5.4-6.4-9.5c-2.9-9.4-0.5-20.2,7-32c7.4-11.7,16.6-19.2,27.2-22.4c5.4-1.6,10.1-1.6,13.7,0.2
			c3.7,1.8,6.4,5.4,8,10.5c3.5,11.6,0.6,25.2-8.7,40.6c-9.2,15.3-20.3,25-32.8,28.8c-8.4,2.5-16.1,2-22.8-1.6
			c-6.7-3.6-11.4-9.7-14-18.2c-5-16.6-0.3-34.8,14.2-53.9c14.2-18.9,32.7-31.8,54.8-38.5c16.3-4.9,31.3-5.6,44.8-2
			c8.3-9.1,17.4-15.2,27-18.1c8.1-2.5,15.6-2,22.1,1.4c6.5,3.4,11.1,9.2,13.5,17.2l0,0c0.9,3.1,1.5,6.6,1.8,10.5
			c0.3,4,0.3,7.7-2.5,8.5c-1.9,0.6-3.7-0.4-4.3-2.3c-0.1-0.5-0.2-1-0.2-1.6c0.3-4.1-0.2-8.3-1.5-12.5c-1.9-6.4-5.3-10.9-10.2-13.6
			c-4.9-2.7-10.4-3.1-16.6-1.2c-7.9,2.4-15.4,7.3-22.4,14.5c9.2,4.5,15.2,10.9,17.7,19.2c2.4,7.9,1.3,15.7-3.2,23.4
			c-4.5,7.6-11,12.8-19.3,15.3c-3.3,1-7,1.4-11.2,1.2c-2.7-0.1-5.4-0.4-7.1-1.6c-0.3,1.6-0.5,3.2-0.8,4.8c-2.5,16-5.6,28.2-9.3,36.1
			c-3.8,8-10.1,16.2-18.7,24.3c-10.3,9.5-20.3,15.8-29.8,18.6C36.3,302.5,32.2,303.1,28.4,303.1z M11.1,280.8
			c0.2,0.1,0.3,0.1,0.5,0.2c1.1,0.6,1.6,1.8,2,3.3c0.2,0.8,0.5,1.4,0.8,1.5c0.3,0.2,0.8,0.1,1.5-0.1c1-0.3,1.6-0.9,2-1.9
			c0.5-1.1,0.5-2.3,0.1-3.6c-0.4-1.3-0.9-2.1-1.5-2.4c-0.5-0.3-1.2-0.3-2.2,0C12.9,278.3,11.9,279.3,11.1,280.8z M97.8,199.1
			c-2.8,6.9-5.2,13.6-7.2,20.1c-6.2,20.9-10.2,33.8-12.2,39.4c-1.9,5.2-4.5,10.6-7.7,16c-0.2,0.3-0.4,0.7-0.6,1
			c6.5-6.6,11.4-13.2,14.4-19.7c3.5-7.5,6.5-19.2,8.9-34.7C94.6,213.3,96.1,205.9,97.8,199.1z M15.9,206.7
			C8.8,217.6,5.2,228.1,5.2,238C6.1,228.6,9.7,218.1,15.9,206.7z M101.1,211.1c0.5,0,1,0.1,1.7,0.2c3.6,0.8,7,0.8,10.1-0.1
			c5.7-1.7,9.7-5.6,12.3-11.7c2.7-6.4,3-12.9,0.8-20c-1.6-5.3-4.6-9.4-9.2-12.7c-7.1,10.5-12.6,25.4-16.4,44.5
			C100.6,211.1,100.9,211.1,101.1,211.1z M124.8,166.9c2.9,3.1,4.9,6.8,6.2,11c2.5,8.2,2.1,16.1-1,23.5c-0.7,1.7-1.5,3.2-2.4,4.6
			c1.8-1.8,3.4-3.9,4.8-6.3c3.8-6.5,4.7-12.8,2.7-19.3C133.5,174.9,130.1,170.4,124.8,166.9z"/>
	</g>
</g>
<g>
	<g>
		<path d="M294.6,139.2c-0.6-3.5-1.8-8.7-4.9-8.6c-2.2,0.1-3.8-0.3-4-1.4c-0.2-1.1,1-1.3,2.4-1.6c5.6-0.2,11-1.3,16.5-2.2
			c5.5-0.9,10.8-2.4,16.3-3.3c1.6-0.3,3.1-0.5,3.3,0.9c0.3,1.6,0.2,3.2,0.5,4.7c0.3,1.6,0.8,3.1,1.1,4.6c0.1,0.8,0,1.4-1.1,1.6
			c-1.1,0.2-1.6-1.1-1.7-1.7c-1.2-4.4-3.6-5.9-11.9-4.5l-4.6,0.8c-2,0.3-2.4,1.1-1.9,3.8l2.1,12.4c0.2,1.1,1.5,1.3,4.3,0.8
			c4.1-0.7,7-2.4,7.7-5.7c0.4-2.1,0.7-2.4,1.4-2.5c1.1-0.2,1.2,0.8,1.4,1.8c0.4,2.1,0.4,4.3,0.8,6.4c0.4,2.1,1,4.2,1.4,6.3
			c0.2,1,0.3,2-1,2.2c-1.1,0.2-1.4-2-2.5-3.2c-2.3-2.6-4.4-2.7-8.5-2c-3.4,0.6-3.9,1.6-3.6,3.4l2,12.1c0.9,5.3,1.9,5.9,5.7,5.3
			c7.5-1.2,11.2-4.2,13.2-7c2-2.7,2.3-5.3,3.5-5.5c0.9-0.1,1.2,0.4,1.4,1.2c0.2,1.4,0.1,4.3-0.1,5.8c-0.4,3-3.1,7-6.4,7.6
			c-4.8,0.8-9.6,1-14.4,1.8c-4.8,0.8-9.4,2.2-14.2,3c-2.2,0.4-3.3,0.5-3.5-0.6c-0.2-1.1,1.1-1.9,2.3-2.7c2.2-1.5,2.3-3.3,1.6-7.4
			L294.6,139.2z"/>
	</g>
	<g>
		<path d="M337.5,157c-0.2-0.6-0.8-1.6-0.9-2.2c-0.1-0.5,0.1-1.1,1.3-1.3c1.4-0.2,2.1,1.6,2.8,2.6c3.6,5.2,9.5,9.3,16.2,8.2
			c5-0.8,8.5-4.6,7.6-9.7c-1.9-11.6-27.3-1.6-30.6-20.9c-1.2-7.3,3.6-14.9,12-16.3c6-1,10.1,1.2,12.5,0.8c0.8-0.1,2.2-1.4,2.8-1.5
			c0.9-0.2,1.2,0.2,1.4,1.2c0.5,4.1,2.8,10.3,2.9,11.1c0.2,0.9-0.2,1.6-1.2,1.8c-1.3,0.2-1.8-0.9-2.6-2.6c-2.5-4.9-9.3-8.6-14.7-7.7
			c-4.3,0.7-7.7,3.8-7,7.9c2,12.1,27.3,1.3,30.6,20.9c1.2,6.9-2.8,16.6-13.4,18.4c-4.5,0.8-8.8-0.1-13.2-0.2c-0.7,0-1.9,0.1-2.3-0.9
			L337.5,157z"/>
	</g>
	<g>
		<path d="M389.7,117.9c-0.4-2.6-2.2-2.8-5.6-2.3c-6.8,1.1-9.8,2.2-10.4,9.5c0,0.4-0.4,0.7-1.2,0.9c-1,0.2-1.3-0.2-1.4-0.6
			c-0.1-0.6-0.1-1.7-0.2-2.5l-0.5-7.4c-0.1-1.3,0.2-1.7,1.9-2c7.2-1.2,14.5-1.8,21.8-3.1s14.5-3,21.6-4.2c1.8-0.3,2-0.1,2.6,2.3
			l1.9,7.1c0.2,0.5,0.3,1,0.4,1.5c0.1,0.4-0.6,0.8-1.2,0.9c-0.9,0.1-1.2,0-1.4-0.4c-3-6.7-6.1-6.8-12.9-5.7c-3.9,0.7-5,1.6-4.6,4
			l5.5,33c0.9,5.6,5.8,4.7,8.3,5.4c0.8,0.2,2-0.2,2.3,1.4c0.2,1.1-0.7,1.3-1.5,1.4c-4.2,0.7-8.6,0.9-13,1.6c-4.3,0.7-8.6,2-12.8,2.7
			c-0.9,0.1-1.7,0.3-1.9-0.9c-0.3-1.6,1-1.6,1.7-2c2.2-1.5,7-2.2,6.1-7.8L389.7,117.9z"/>
	</g>
</g>
<g>
	<g>
		<path d="M372.7,257.9c1.2-0.2,1.6-0.6,1.5-1.4l-0.9-4.9c-0.4-2.2-1.7-2.6-3.2-2.5c-0.5,0-0.8-0.1-0.9-0.7c-0.1-0.6,0.9-0.8,2-0.9
			c1.4-0.3,2.9-0.2,4.3-0.5c1.4-0.3,2.8-0.8,4.2-1.1c0.5-0.1,1-0.2,1.1,0.4c0.1,0.6-0.5,0.9-0.8,1c-1,0.5-1.5,1.9-1.3,3.3l2.9,15.9
			c0.4,2.2,1.7,2.6,3.2,2.5c0.5,0,0.8,0.1,0.9,0.7c0.1,0.6-0.9,0.8-2,0.9c-1.4,0.3-2.9,0.2-4.3,0.5c-1.4,0.3-2.8,0.8-4.2,1.1
			c-0.5,0.1-1,0.2-1.1-0.4c-0.1-0.6,0.5-0.9,0.8-1c1.3-0.7,1.5-2.1,1.3-3.3l-1.2-6.8c-0.2-1.1-0.5-1.2-1.5-1l-8.7,1.6
			c-0.6,0.1-0.6,0.8-0.5,1.3l1.2,6.9c0.4,2.2,1.7,2.6,3.2,2.5c0.5,0,0.8,0.1,0.9,0.7c0.1,0.6-0.9,0.8-2,0.9
			c-1.4,0.3-2.9,0.2-4.3,0.5s-2.8,0.8-4.2,1.1c-0.5,0.1-1,0.2-1.1-0.4c-0.1-0.6,0.5-0.9,0.8-1c1.3-0.7,1.5-2.1,1.3-3.3l-2.9-15.9
			c-0.4-2.2-1.7-2.6-3.2-2.4c-0.5,0-0.8-0.1-0.9-0.7c-0.1-0.6,0.9-0.8,2-0.9c1.4-0.3,2.9-0.2,4.3-0.5c1.4-0.3,2.8-0.8,4.2-1.1
			c0.5-0.1,1-0.2,1.1,0.4s-0.5,0.9-0.8,1c-1.3,0.7-1.5,2.1-1.3,3.3l0.9,4.9c0.1,0.7,0.6,1,1.5,0.9L372.7,257.9z"/>
	</g>
	<g>
		<path d="M395.1,264.1c0.4,2.2,2.5,2.5,3.3,2.4c0.5,0,0.8,0.1,0.9,0.7c0.1,0.6-0.9,0.8-2,0.9c-1.1,0.2-2.6,0.2-4,0.4
			s-2.8,0.8-4.2,1.1c-0.7,0.1-1.2,0.2-1.3-0.3c-0.1-0.6,0.5-0.9,0.8-1c1.3-0.7,1.3-2.1,1.1-3.2l-2.9-15.9c-0.4-2.2-1.7-2.6-3.2-2.5
			c-0.5,0-0.8-0.1-0.9-0.7c-0.1-0.6,0.9-0.8,2-0.9c1.4-0.3,2.9-0.2,4.3-0.5c1.4-0.3,2.8-0.8,4.2-1.1c0.5-0.1,1-0.2,1.1,0.4
			c0.1,0.6-0.8,0.9-1.2,1.1c-1.3,0.7-1.1,2-0.9,3.2L395.1,264.1z"/>
	</g>
	<g>
		<path d="M400.5,261.1c-0.1-0.3-0.4-0.8-0.5-1.1c0-0.2,0-0.6,0.6-0.7c0.7-0.1,1.1,0.8,1.4,1.3c1.8,2.6,4.8,4.6,8.1,4
			c2.5-0.5,4.2-2.3,3.8-4.9c-1-5.8-13.7-0.6-15.4-10.3c-0.7-3.6,1.7-7.5,5.9-8.2c3-0.5,5.1,0.5,6.2,0.3c0.4-0.1,1.1-0.7,1.4-0.8
			c0.5-0.1,0.6,0.1,0.7,0.6c0.3,2,1.4,5.2,1.5,5.5c0.1,0.5-0.1,0.8-0.6,0.9c-0.6,0.1-0.9-0.4-1.3-1.3c-1.3-2.4-4.7-4.2-7.4-3.7
			c-2.2,0.4-3.8,2-3.4,4c1.1,6,13.7,0.4,15.4,10.2c0.6,3.4-1.3,8.3-6.5,9.3c-2.3,0.4-4.4,0-6.6,0c-0.4,0-0.9,0.1-1.2-0.4
			L400.5,261.1z"/>
	</g>
	<g>
		<path d="M426.4,241.1c-0.2-1.3-1.1-1.4-2.8-1.1c-3.4,0.6-4.9,1.2-5.1,4.8c0,0.2-0.2,0.4-0.6,0.4c-0.5,0.1-0.7-0.1-0.7-0.3
			c-0.1-0.3-0.1-0.8-0.1-1.2l-0.3-3.7c0-0.7,0.1-0.9,0.9-1c3.6-0.7,7.2-1,10.9-1.7c3.6-0.7,7.2-1.6,10.8-2.2c0.9-0.2,1-0.1,1.3,1.1
			l1,3.5c0.1,0.2,0.2,0.5,0.2,0.8c0,0.2-0.3,0.4-0.6,0.5c-0.4,0.1-0.6,0-0.7-0.2c-1.5-3.3-3.1-3.4-6.5-2.7c-1.9,0.4-2.5,0.9-2.3,2
			l3,16.4c0.5,2.8,2.9,2.3,4.2,2.6c0.4,0.1,1-0.1,1.1,0.7c0.1,0.6-0.3,0.6-0.7,0.7c-2.1,0.4-4.3,0.5-6.5,0.9s-4.3,1.1-6.4,1.4
			c-0.4,0.1-0.9,0.2-1-0.4c-0.1-0.8,0.5-0.8,0.8-1c1.1-0.7,3.5-1.1,3-3.9L426.4,241.1z"/>
	</g>
	<g>
		<path d="M456.5,231.7c7.3-1.3,13.8,2.4,15.2,9.9c1.4,8-4.8,14.4-12.1,15.7c-7.3,1.3-13.5-2.5-14.8-9.7
			C443.4,239.9,449.2,233,456.5,231.7z M461,255.4c4.2-0.8,6.3-5.8,5.4-10.8c-0.9-4.8-5.2-12-10.9-11c-4.2,0.8-6.3,5.8-5.4,10.8
			C451,249.2,455.3,256.4,461,255.4z"/>
	</g>
	<g>
		<path d="M475.6,233.1c-0.4-2.1-1.7-2.5-3.2-2.5c-0.5,0-0.8-0.1-0.9-0.7c-0.1-0.4,0-0.6,0.9-0.7c0.8-0.2,1.9,0,4.4-0.5
			c1.9-0.3,4.5-1.1,6-1.4c4.7-0.9,9.8-0.9,10.9,5c0.4,2.4-0.5,3.9-1.8,5c-0.6,0.5-1.6,0.9-1.6,1.3c0.1,0.5,5.3,6.9,7.4,8.5
			c0.4,0.3,0.7,0.5,1.1,0.4c0.4-0.1,0.8-0.2,1.1-0.3c0.4-0.1,0.6,0.1,0.7,0.5c0.3,1.5-3.9,2.5-5,2.7c-1,0.2-2.4-0.3-3.4-1.6
			l-5.5-6.8c-0.8-1-1.5-1.8-2.8-1.5c-0.9,0.2-1.1,0.4-1.1,0.9l1.1,6c0.5,2.9,1.8,3.3,3.4,3.2c0.5,0,0.8,0.1,0.9,0.7
			c0.1,0.5-0.3,0.6-2,0.9c-1.4,0.3-2.9,0.2-4.3,0.5c-1.4,0.3-2.8,0.8-4.2,1.1c-0.5,0.1-1,0.2-1.1-0.4c-0.1-0.6,0.5-0.9,0.8-1
			c1.3-0.7,1.5-2.1,1.3-3.3L475.6,233.1z M482,237.9c0.1,0.4,0.2,1.2,2.5,0.8c3.2-0.6,4.2-2.3,3.6-5.8c-0.5-2.5-2.4-4.8-5.5-4.2
			c-1.9,0.3-2.1,1-1.9,2.2L482,237.9z"/>
	</g>
	<g>
		<path d="M514.9,226.6c0.3-0.8,0.3-1.4,0.2-1.8c-0.2-1-1.5-1.2-3.1-1.3c-0.4,0-0.8-0.2-0.9-0.7c-0.1-0.6,0.3-0.6,0.7-0.7
			c1.2-0.2,2.5-0.2,3.8-0.4c1.2-0.2,2.4-0.7,3.7-1c0.4-0.1,0.8-0.1,0.9,0.4s-0.2,0.7-0.8,1c-1,0.7-1.4,1.4-2.3,3.9l-3.2,8.4
			c-0.3,0.8-0.6,1.4-0.5,2.1l1,5.6c0.3,1.8,1.1,2.9,3,2.9c0.8,0,1.6-0.1,1.7,0.6c0.1,0.7-0.9,0.9-1.8,1.1c-1.6,0.3-3.2,0.3-4.9,0.6
			c-1.2,0.2-2.7,0.8-4.3,1.1c-1,0.2-2,0.4-2.1-0.4c-0.1-0.7,0.6-0.9,1.4-1.1c1.8-0.6,2.1-2,1.8-3.7l-0.8-4.4
			c-0.1-0.4-0.2-0.6-0.5-0.9l-7.2-9c-1.6-2-2.6-2.5-3.6-2.5c-0.8,0-1.5,0-1.6-0.6s0.5-0.7,1.1-0.8c1.6-0.3,3.2-0.3,4.8-0.6
			c1.6-0.3,3.1-0.9,4.7-1.2c0.6-0.1,1.2-0.2,1.3,0.3c0.1,0.6-0.9,0.7-1.4,1.1c-0.4,0.3-0.7,0.6-0.6,0.9c0.1,0.6,0.5,1.2,1,1.8
			l4.3,5.4c0.7,0.9,1.1,1.2,1.3,1.1c0.1,0,0.5-0.8,0.8-1.5L514.9,226.6z"/>
	</g>
	<g>
		<path d="M535.2,223.6c-0.2-1.3-1-3.2-2.5-3.6c-1.3-0.4-1.8-0.4-1.9-0.9c-0.1-0.5,0-0.6,0.4-0.6c1.1-0.2,2.2-0.2,3.2-0.4
			c1.1-0.2,2.1-0.5,3.2-0.7c0.7-0.1,1-0.1,1.3,0.4l9.5,13.1c1,1.3,1.3,1.9,1.4,1.9c0.2,0,0.4-0.8,0.6-1.5l5.1-16.2
			c0.3-0.8,0.4-0.9,0.7-1c1.1-0.2,2.2-0.2,3.2-0.4s2.1-0.5,3.2-0.7c0.2,0,0.4,0.1,0.4,0.5c0.1,0.6-0.5,0.9-1.5,1.4
			c-1.2,0.7-1.7,1.1-1.3,3.2l2.3,12.6c0.5,2.9,1.1,4.8,4,5.4c0.8,0.1,1.1,0.3,1.2,0.8c0.1,0.6-0.6,0.7-1.3,0.8
			c-1.4,0.1-2.9,0.4-4.3,0.5c-1.4,0.4-2.8,0.7-4.2,1.1c-0.7,0.1-1.4,0.3-1.5-0.3c-0.1-0.6,0.2-0.8,0.8-1.2c0.8-0.5,0.8-1.2,0.4-3.1
			l-2.1-11.3c-0.1-0.4-0.2-1-0.4-1c-0.2,0-0.4,0.6-0.7,1.6l-4.4,15.8c-0.2,0.5-0.4,1.1-0.8,1.2c-0.4,0.1-0.7-0.3-0.9-0.6l-9.6-13.8
			c-0.3-0.5-0.6-0.9-0.9-0.9c-0.2,0-0.3,0.2-0.1,0.9l1.7,9.3c0.4,2.2,1.3,4,3.9,4.5c0.6,0.1,1,0.3,1.1,0.9c0.1,0.6-0.5,0.7-0.9,0.7
			c-1.2,0.2-2.5,0.2-3.8,0.4c-1.2,0.2-2.4,0.7-3.7,1c-0.4,0.1-0.7,0.1-0.8-0.4c-0.1-0.6,0.3-0.8,0.8-1.2c1.7-1.3,1.9-2.4,1.6-4.4
			L535.2,223.6z"/>
	</g>
	<g>
		<path d="M577,211.1c0.3-1,0.4-1.4,0.7-1.4c0.1,0,0.4,0.3,0.7,0.6l12.4,17.7c0.9,1.2,1.7,2.8,3.1,3c1,0.1,1.6,0.1,1.7,0.7
			c0.1,0.6-0.3,0.6-0.8,0.7c-1.7,0.3-3.5,0.3-5,0.6s-3.2,0.9-4.9,1.2c-0.5,0.1-0.8-0.1-0.8-0.3c-0.1-0.4,0.3-0.8,0.8-0.9
			c0.9-0.3,1.3-1.3,1.1-2.2c-0.2-0.9-1.8-3.7-2.4-4.2c-0.5-0.4-1.2-0.4-3-0.1l-5.4,1c-1.8,0.3-2.1,4.1-1.9,5.6
			c0.1,0.5,1.1,1,1.9,1.1c1,0.1,2.4,0.1,2.5,0.7c0.1,0.6-0.3,0.6-0.9,0.7c-1.2,0.2-2.5,0.2-3.7,0.4s-2.4,0.7-3.6,0.9
			c-0.5,0.1-0.9,0.2-1-0.4c-0.1-0.6,0.7-0.9,1.2-1.4c0.5-0.5,0.7-1,0.9-1.6L577,211.1z M575.1,224c-0.2,0.5-0.2,1-0.2,1.1
			c0.1,0.3,0.7,0.3,1.6,0.2l3.8-0.7c1.1-0.2,1.5-0.4,1.5-0.5c0-0.2-0.4-0.8-0.8-1.3l-3.3-4.4c-0.3-0.4-0.5-0.6-0.8-0.6
			c-0.2,0-0.4,0.8-0.4,1L575.1,224z"/>
	</g>
	<g>
		<path d="M596,211.5c-0.5-2.8-1.7-2.5-3.3-2.7c-0.5-0.1-0.8-0.3-0.9-0.7c-0.1-0.5,0.1-0.6,1-0.8c1.3-0.2,3.7-0.4,5.4-0.7
			c1.7-0.3,5-1.2,6.9-1.5c4.7-0.8,9.2-0.2,10.1,4.9c0.8,4.2-2.4,7.9-6.4,8.6c-0.8,0.1-4.3,0.5-4.5-0.7c-0.1-0.4,0.2-0.5,1.7-0.8
			c3-0.6,4-3,3.5-5.8c-0.6-3.4-3.2-4.7-6.6-4.1c-1.2,0.2-2,1.1-1.8,1.9l3.1,17.1c0.4,2.1,2.8,2.2,4.3,2.2c0.5,0,0.8,0.2,0.9,0.7
			c0.1,0.6-0.9,0.8-2,0.9c-1.6,0.3-3.2,0.3-4.8,0.6c-1.6,0.3-3.1,0.9-4.7,1.2c-0.8,0.1-1.1,0-1.1-0.4c-0.1-0.5,0.5-0.8,0.8-1
			c1.2-0.8,1.5-2.1,1.3-3.2L596,211.5z"/>
	</g>
</g>
<g>
	<g>
		<path d="M145.6,240.3c2.5-0.4,3.3-1.2,3-2.8l-1.7-9.8c-0.8-4.4-3.4-5.3-6.4-4.9c-0.9,0.1-1.6-0.3-1.8-1.4s1.9-1.5,3.9-1.9
			c2.8-0.5,5.8-0.4,8.6-0.9c2.8-0.5,5.6-1.6,8.4-2.1c1-0.2,2.1-0.4,2.3,0.8c0.2,1.1-0.9,1.7-1.6,2c-2.1,1-3.1,3.8-2.6,6.5l5.6,31.9
			c0.8,4.4,3.4,5.3,6.4,4.9c0.9-0.1,1.6,0.3,1.8,1.4c0.2,1.1-1.9,1.5-3.9,1.9c-2.8,0.5-5.8,0.4-8.6,0.9s-5.6,1.6-8.4,2.1
			c-1,0.2-2.1,0.4-2.3-0.8c-0.2-1.1,0.9-1.7,1.6-2c2.6-1.3,3-4.2,2.6-6.5l-2.4-13.6c-0.4-2.3-0.9-2.3-3-2l-17.4,3
			c-1.2,0.2-1.2,1.5-1,2.5l2.4,13.8c0.8,4.4,3.4,5.3,6.4,4.9c0.9-0.1,1.6,0.3,1.8,1.4c0.2,1.1-1.9,1.5-3.9,1.9
			c-2.8,0.5-5.8,0.4-8.6,0.9c-2.8,0.5-5.6,1.6-8.4,2.1c-1,0.2-2.1,0.4-2.3-0.8c-0.2-1.1,0.9-1.7,1.6-2c2.6-1.3,3-4.2,2.6-6.5
			l-5.6-31.9c-0.8-4.4-3.4-5.3-6.4-4.9c-0.9,0.1-1.6-0.3-1.8-1.4c-0.2-1.1,1.9-1.5,3.9-1.9c2.8-0.5,5.8-0.4,8.6-0.9
			c2.8-0.5,5.6-1.6,8.4-2.1c1-0.2,2.1-0.4,2.3,0.8c0.2,1.1-0.9,1.7-1.6,2c-2.6,1.3-3,4.2-2.6,6.5l1.7,9.8c0.2,1.4,1.2,2.1,3,1.7
			L145.6,240.3z"/>
	</g>
	<g>
		<path d="M190.5,253c0.8,4.4,4.9,5.1,6.5,4.9c0.9-0.1,1.6,0.3,1.8,1.4c0.2,1.1-1.9,1.5-3.9,1.9c-2.2,0.4-5.1,0.3-8,0.8
			c-2.8,0.5-5.6,1.6-8.4,2.1c-1.3,0.2-2.4,0.4-2.6-0.7c-0.2-1.1,0.9-1.7,1.6-2c2.6-1.3,2.6-4.1,2.2-6.5l-5.6-31.9
			c-0.8-4.4-3.4-5.3-6.4-4.9c-0.9,0.1-1.6-0.3-1.8-1.4s1.9-1.5,3.9-1.9c2.8-0.5,5.8-0.4,8.6-0.9s5.6-1.6,8.4-2.1
			c1-0.2,2.1-0.4,2.3,0.8c0.2,1.1-1.7,1.8-2.3,2.2c-2.6,1.3-2.3,4.1-1.9,6.4L190.5,253z"/>
	</g>
	<g>
		<path d="M200.6,218.4c-0.8-4.4-3.4-5.5-6.4-4.9c-0.9,0.2-1.6-0.3-1.8-1.3c-0.1-0.7,0.3-1.4,1.1-1.5c3.4-0.6,7-0.6,10.4-1.2
			c3.5-0.6,6.8-1.8,9.5-2.2c1-0.2,2.1-0.4,2.3,0.8c0.2,1.1-0.9,1.7-1.6,2c-2.6,1.3-3,4.2-2.6,6.5l5.4,30.7c0.9,5.4,1.9,5.9,5.5,5.2
			c7.4-1.3,11.2-4.3,13.2-7c2-2.8,2.4-5.2,4.1-5.5c1-0.2,1.9,1,2.1,2.6c1,5.8-3.8,11.3-9.3,12.3c-4.8,0.8-14.6,2-19.3,2.8
			c-2.6,0.5-5.2,1.5-7.8,1.9c-1.6,0.3-3,0.5-3.2-0.6c-0.2-1.1,0.9-1.5,2.3-2.7c2.1-2,2-4.7,1.6-7L200.6,218.4z"/>
	</g>
	<g>
		<path d="M261.4,200.7c0.6-2,0.8-2.7,1.5-2.8c0.3,0,0.8,0.5,1.4,1.3l24.5,35.5c1.7,2.5,3.3,5.7,6.2,6c2,0.2,3.1,0.3,3.3,1.4
			c0.2,1.1-0.5,1.3-1.6,1.5c-3.4,0.6-6.9,0.6-10,1.2s-6.4,1.7-9.8,2.3c-1,0.2-1.5-0.2-1.6-0.7c-0.1-0.9,0.5-1.6,1.6-1.9
			c1.8-0.7,2.6-2.5,2.3-4.3c-0.3-1.8-3.5-7.5-4.8-8.4c-1.1-0.8-2.5-0.8-6-0.2l-10.9,1.9c-3.6,0.6-4.4,8.1-3.8,11.2
			c0.2,1.1,2.2,2.1,3.8,2.3c2.1,0.2,4.8,0.3,5,1.5c0.2,1.1-0.6,1.3-1.7,1.5c-2.4,0.4-4.9,0.3-7.3,0.7c-2.4,0.4-4.7,1.4-7.1,1.8
			c-1,0.2-1.8,0.3-2-0.8c-0.2-1.1,1.5-1.9,2.4-2.8c1.1-1.1,1.5-1.9,1.9-3.2L261.4,200.7z M257.4,226.4c-0.3,1.1-0.5,1.9-0.4,2.1
			c0.1,0.6,1.4,0.6,3.1,0.3l7.7-1.3c2.3-0.4,3.1-0.7,3-1c-0.1-0.4-0.8-1.6-1.6-2.7l-6.5-8.9c-0.7-0.8-1-1.3-1.5-1.2
			c-0.4,0.1-0.7,1.7-0.8,2L257.4,226.4z"/>
	</g>
	<g>
		<path d="M299.8,204.3c-1.2-7-2.4-7.6-4.9-7.8c-2.8-0.3-3.6-0.2-3.8-1.2c-0.2-1.3,0.6-1.8,2.4-2.1c3.5-0.6,7.1-0.6,10.5-1.3
			c3.5-0.6,6.9-1.8,10.3-2.4c17.8-3.1,30.7,1.4,33.6,18.2c3,17.3-9.5,28.5-23.6,30.9c-7.3,1.3-12.4,1.6-14.8,2
			c-2.1,0.4-4.3,1.3-6.4,1.7c-1.2,0.2-2.2,0.4-2.3-0.4c-0.2-1.1,1.1-1.7,2.2-2.3c2.5-1.4,2-5.4,1.5-8.2L299.8,204.3z M315.2,229
			c1.1,6.1,3.6,6.7,9.5,5.6c10.4-1.8,13.7-13.4,12.1-22.5c-1.9-10.7-9.3-21.7-22.2-19.4c-4.5,0.8-5.2,3-4.5,6.7L315.2,229z"/>
	</g>
	<g>
		<path d="M355.3,195.1c-0.6-3.5-1.9-8.7-4.9-8.6c-2.2,0.1-3.8-0.3-4-1.4s1-1.3,2.4-1.6c5.6-0.2,11-1.4,16.5-2.3
			c5.5-1,10.8-2.5,16.3-3.4c1.6-0.3,3.1-0.5,3.3,0.9c0.3,1.6,0.3,3.2,0.5,4.7s0.8,3.1,1.1,4.6c0.1,0.8,0,1.4-1,1.6
			c-1.1,0.2-1.6-1-1.8-1.7c-1.3-4.4-3.7-5.9-12-4.4l-4.6,0.8c-2,0.3-2.4,1.1-1.9,3.8l2.2,12.4c0.2,1.1,1.5,1.3,4.3,0.8
			c4.1-0.7,7-2.5,7.6-5.7c0.4-2.1,0.7-2.4,1.4-2.5c1.1-0.2,1.2,0.8,1.4,1.8c0.4,2.1,0.5,4.3,0.8,6.4c0.4,2.1,1,4.2,1.4,6.3
			c0.2,1,0.3,2-1,2.2c-1.1,0.2-1.4-1.9-2.5-3.2c-2.3-2.6-4.4-2.7-8.5-1.9c-3.4,0.6-3.9,1.6-3.6,3.4l2.1,12.1c0.9,5.2,2,5.9,5.7,5.2
			c7.4-1.3,11.2-4.3,13.2-7c2-2.8,2.3-5.3,3.4-5.5c0.9-0.1,1.2,0.4,1.4,1.1c0.2,1.4,0.2,4.3-0.1,5.8c-0.4,3-3,7-6.3,7.6
			c-4.8,0.8-9.6,1.1-14.4,1.9c-4.8,0.8-9.4,2.2-14.2,3.1c-2.2,0.4-3.3,0.6-3.5-0.6c-0.2-1.1,1.1-1.9,2.3-2.7
			c2.1-1.5,2.3-3.3,1.6-7.4L355.3,195.1z"/>
	</g>
	<g>
		<path d="M397.6,184c-0.8-4.4-3.4-5.5-6.4-4.9c-0.9,0.2-1.6-0.3-1.8-1.3c-0.1-0.7,0.3-1.4,1.1-1.5c3.4-0.6,7-0.6,10.4-1.2
			c3.5-0.6,6.8-1.8,9.5-2.2c1-0.2,2.1-0.4,2.3,0.8c0.2,1.1-0.9,1.7-1.6,2c-2.6,1.3-3,4.2-2.6,6.5l5.4,30.7c0.9,5.4,1.9,5.9,5.5,5.2
			c7.4-1.3,11.2-4.3,13.2-7c2-2.8,2.4-5.2,4.1-5.5c1-0.2,1.9,1,2.1,2.6c1,5.8-3.8,11.3-9.3,12.3c-4.8,0.8-14.6,2-19.3,2.8
			c-2.6,0.5-5.1,1.5-7.8,1.9c-1.6,0.3-3,0.5-3.2-0.6c-0.2-1.1,0.9-1.5,2.3-2.7c2.1-2,2-4.7,1.6-7L397.6,184z"/>
	</g>
	<g>
		<path d="M441.2,176.9c-1-5.7-3.4-5.1-6.5-5.5c-1-0.1-1.6-0.5-1.8-1.4c-0.2-0.9,0.2-1.3,2-1.6c2.6-0.4,7.5-0.7,10.9-1.3
			c3.4-0.6,10-2.3,13.8-3c9.4-1.6,18.3-0.2,20.1,9.9c1.5,8.4-4.9,15.8-12.9,17.2c-1.6,0.3-8.5,0.9-9-1.5c-0.1-0.8,0.3-1,3.4-1.5
			c6.1-1.1,8.1-6,7.1-11.5c-1.2-6.8-6.3-9.5-13.1-8.3c-2.5,0.4-3.9,2.1-3.6,3.9l6,34.3c0.7,4.3,5.5,4.5,8.5,4.4
			c0.9,0,1.6,0.4,1.8,1.4c0.2,1.1-1.9,1.5-3.9,1.9c-3.2,0.6-6.5,0.5-9.7,1.1c-3.2,0.6-6.3,1.7-9.5,2.2c-1.6,0.3-2.1,0-2.3-0.8
			c-0.2-1.1,1-1.6,1.6-2c2.5-1.5,3-4.1,2.6-6.4L441.2,176.9z"/>
	</g>
	<g>
		<path d="M519.9,175c2.5-0.4,3.3-1.2,3-2.8l-1.7-9.8c-0.8-4.4-3.4-5.3-6.4-4.9c-0.9,0.1-1.6-0.3-1.8-1.4c-0.2-1.1,1.9-1.5,3.9-1.9
			c2.8-0.5,5.8-0.4,8.6-0.9c2.8-0.5,5.6-1.6,8.4-2.1c1-0.2,2.1-0.4,2.3,0.8s-0.9,1.7-1.6,2c-2.1,1-3.1,3.8-2.6,6.5l5.6,31.9
			c0.8,4.4,3.4,5.3,6.4,4.9c0.9-0.1,1.6,0.3,1.8,1.4c0.2,1.1-1.9,1.5-3.9,1.9c-2.8,0.5-5.8,0.4-8.6,0.9c-2.8,0.5-5.6,1.6-8.4,2.1
			c-1,0.2-2.1,0.4-2.3-0.8c-0.2-1.1,0.9-1.7,1.6-2c2.6-1.3,3-4.2,2.6-6.5l-2.4-13.6c-0.4-2.3-0.9-2.3-3-2l-17.4,3
			c-1.2,0.2-1.2,1.5-1,2.5l2.4,13.8c0.8,4.4,3.4,5.3,6.4,4.9c0.9-0.1,1.6,0.3,1.8,1.4c0.2,1.1-1.9,1.5-3.9,1.9
			c-2.8,0.5-5.8,0.4-8.6,0.9c-2.8,0.5-5.6,1.6-8.4,2.1c-1,0.2-2.1,0.4-2.3-0.8c-0.2-1.1,0.9-1.7,1.6-2c2.6-1.3,3-4.2,2.6-6.5
			l-5.6-31.9c-0.8-4.4-3.4-5.3-6.4-4.9c-0.9,0.1-1.6-0.3-1.8-1.4s1.9-1.5,3.9-1.9c2.8-0.5,5.8-0.4,8.6-0.9s5.6-1.6,8.4-2.1
			c1-0.2,2.1-0.4,2.3,0.8c0.2,1.1-0.9,1.7-1.6,2c-2.6,1.3-3,4.2-2.6,6.5l1.7,9.8c0.2,1.4,1.2,2.1,3,1.7L519.9,175z"/>
	</g>
	<g>
		<path d="M564.8,187.7c0.8,4.4,4.9,5.1,6.5,4.9c0.9-0.1,1.6,0.3,1.8,1.4c0.2,1.1-1.9,1.5-3.9,1.9c-2.2,0.4-5.1,0.3-8,0.8
			c-2.8,0.5-5.6,1.6-8.4,2.1c-1.3,0.2-2.4,0.4-2.6-0.7c-0.2-1.1,0.9-1.7,1.6-2c2.6-1.3,2.6-4.1,2.2-6.5l-5.6-31.9
			c-0.8-4.4-3.4-5.3-6.4-4.9c-0.9,0.1-1.6-0.3-1.8-1.4c-0.2-1.1,1.9-1.5,3.9-1.9c2.8-0.5,5.8-0.4,8.6-0.9c2.8-0.5,5.6-1.6,8.4-2.1
			c1-0.2,2.1-0.4,2.3,0.8s-1.7,1.8-2.3,2.2c-2.6,1.3-2.3,4.1-1.9,6.4L564.8,187.7z"/>
	</g>
	<g>
		<path d="M592.4,142.9c0.6-2,0.8-2.7,1.5-2.8c0.3,0,0.8,0.5,1.4,1.3l24.5,35.5c1.7,2.5,3.3,5.7,6.2,6c2,0.2,3.1,0.3,3.3,1.4
			c0.2,1.1-0.5,1.3-1.6,1.5c-3.4,0.6-6.9,0.6-10,1.2c-3.1,0.5-6.4,1.7-9.8,2.3c-1,0.2-1.5-0.2-1.6-0.7c-0.1-0.9,0.5-1.6,1.6-1.9
			c1.8-0.7,2.6-2.5,2.3-4.3c-0.3-1.8-3.5-7.5-4.8-8.4c-1.1-0.8-2.5-0.8-6-0.2l-10.9,1.9c-3.6,0.6-4.4,8.1-3.8,11.2
			c0.2,1.1,2.2,2.1,3.8,2.3c2.1,0.2,4.8,0.3,5,1.5c0.2,1.1-0.6,1.3-1.7,1.5c-2.4,0.4-4.9,0.3-7.3,0.7c-2.4,0.4-4.7,1.4-7.1,1.8
			c-1,0.2-1.8,0.3-2-0.8c-0.2-1.1,1.5-1.9,2.4-2.8c1.1-1.1,1.5-1.9,1.9-3.2L592.4,142.9z M588.5,168.6c-0.3,1.1-0.5,1.9-0.4,2.1
			c0.1,0.6,1.4,0.6,3.1,0.3l7.7-1.3c2.3-0.4,3.1-0.7,3-1c-0.1-0.4-0.8-1.6-1.6-2.7l-6.5-8.9c-0.7-0.8-1-1.3-1.5-1.2
			c-0.4,0.1-0.7,1.7-0.8,2L588.5,168.6z"/>
	</g>
</g>
</svg>
