<!-- Generator: Adobe Illustrator 19.2.1, SVG Export Plug-In  -->
<svg version="1.1"
	 xmlns="http://www.w3.org/2000/svg" xmlns:xlink="http://www.w3.org/1999/xlink" xmlns:a="http://ns.adobe.com/AdobeSVGViewerExtensions/3.0/"
	 x="0px" y="0px" width="29.3px" height="29.3px" viewBox="0 0 29.3 29.3" enable-background="new 0 0 29.3 29.3"
	 xml:space="preserve">
<defs>
</defs>
<g id="zOVC0l_1_">
	<g>
		<path fill="#DA1C5C" d="M12.1,0c0.2,0,0.4,0,0.6,0c0.1,0.2,0.3,0.3,0.4,0.5c0.3,0.5,0.5,1,0.8,1.6c0.1,0.1,0.1,0.2,0.3,0.2
			c0.4,0,0.7,0,1.1,0c0.2,0,0.2,0,0.3-0.2c0.2-0.5,0.5-1,0.7-1.5c0.1-0.2,0.3-0.4,0.4-0.6c0.2,0,0.3,0,0.5,0c0.1,0,0.1,0,0.2,0.1
			c2.1,0.4,4.1,1.2,5.8,2.5c0.4,0.3,0.5,0.5,0.3,0.9C23.3,4,23.2,4.6,23,5.1c-0.1,0.2,0,0.3,0.1,0.4c0.3,0.3,0.5,0.5,0.8,0.8
			C24,6.4,24,6.4,24.2,6.4c0.6-0.2,1.2-0.4,1.8-0.6c0.4-0.1,0.6-0.1,0.8,0.3c0.9,1.3,1.6,2.7,2.1,4.3c0.2,0.6,0.3,1.2,0.5,1.8
			c0,0.2,0,0.3,0,0.5c-0.2,0.1-0.3,0.3-0.5,0.4c-0.5,0.3-1,0.5-1.5,0.8c-0.1,0-0.2,0.2-0.2,0.3c0,0.4,0,0.8,0,1.2
			c0,0.1,0.1,0.2,0.2,0.3c0.5,0.3,1,0.5,1.5,0.8c0.2,0.1,0.4,0.3,0.5,0.4c0,0.2,0,0.3,0,0.5c0,0.1,0,0.1-0.1,0.2
			c-0.4,2.1-1.2,4.1-2.5,5.9c-0.2,0.3-0.5,0.4-0.8,0.3c-0.6-0.2-1.2-0.4-1.8-0.6c-0.1,0-0.2,0-0.3,0.1c-0.3,0.3-0.5,0.5-0.8,0.8
			c-0.1,0.1-0.1,0.2-0.1,0.3c0.2,0.6,0.4,1.2,0.6,1.8c0.1,0.4,0.1,0.6-0.3,0.8c-1.3,0.9-2.7,1.6-4.3,2.1c-0.6,0.2-1.2,0.3-1.8,0.5
			c-0.2,0-0.4,0-0.6,0c-0.1-0.2-0.3-0.3-0.4-0.5c-0.3-0.5-0.5-1-0.8-1.6c-0.1-0.1-0.1-0.2-0.3-0.2c-0.4,0-0.7,0-1.1,0
			c-0.2,0-0.2,0-0.3,0.2c-0.2,0.5-0.5,1-0.7,1.5c-0.1,0.2-0.3,0.4-0.4,0.6c-0.2,0-0.3,0-0.5,0c0,0-0.1,0-0.1-0.1
			c-2.1-0.4-4.1-1.2-5.8-2.4c-0.5-0.3-0.5-0.7-0.1-1.1c1.7-1.7,3.3-3.3,5-5c0.3-0.3,0.5-0.4,0.9-0.2c1.2,0.5,2.4,0.7,3.7,0.5
			c2.8-0.5,4.8-2.4,5.4-5.2c0.1-0.6,0.2-1.2,0.1-1.8c-0.1,0.1-0.2,0.2-0.2,0.3c-1,1-1.9,1.9-2.9,2.9c-0.2,0.3-0.5,0.3-0.8,0.2
			c-1.2-0.4-2.3-0.8-3.5-1.2c-0.3-0.1-0.4-0.2-0.5-0.5c-0.4-1.2-0.8-2.4-1.2-3.5c-0.1-0.3,0-0.6,0.2-0.8c1-1,1.9-1.9,2.9-2.9
			c0.1-0.1,0.1-0.1,0.2-0.2c0,0,0-0.1,0-0.1c-0.6,0-1.2,0.1-1.7,0.2C9.3,9,7,13.5,8.8,17.4c0.2,0.4,0.1,0.6-0.2,0.9
			c-1.7,1.7-3.3,3.3-5,5c-0.4,0.4-0.8,0.4-1.1-0.1c-1-1.4-1.7-2.9-2.1-4.5c-0.1-0.5-0.2-0.9-0.3-1.4c0-0.2,0-0.3,0-0.5
			c0.2-0.1,0.3-0.3,0.5-0.4c0.5-0.3,1-0.5,1.5-0.8c0.1,0,0.2-0.2,0.2-0.3c0-0.4,0-0.8,0-1.2c0-0.1-0.1-0.2-0.2-0.3
			c-0.5-0.3-1-0.5-1.5-0.8c-0.2-0.1-0.4-0.3-0.6-0.4c0-0.2,0-0.3,0-0.5C0,12.1,0,12,0.1,12c0.4-2.1,1.2-4.1,2.5-5.9
			C2.8,5.7,3,5.6,3.5,5.8C4,6,4.6,6.2,5.2,6.4c0.1,0,0.2,0,0.3-0.1C5.7,6,6,5.8,6.3,5.5c0.1-0.1,0.2-0.2,0.1-0.4
			C6.2,4.5,6,4,5.8,3.4C5.7,3,5.7,2.8,6.1,2.5c1.4-1,2.9-1.7,4.5-2.1C11,0.3,11.6,0.1,12.1,0z"/>
	</g>
</g>
</svg>
