<!-- Generator: Adobe Illustrator 19.2.1, SVG Export Plug-In  -->
<svg version="1.1"
	 xmlns="http://www.w3.org/2000/svg" xmlns:xlink="http://www.w3.org/1999/xlink" xmlns:a="http://ns.adobe.com/AdobeSVGViewerExtensions/3.0/"
	 x="0px" y="0px" width="57.2px" height="57.2px" viewBox="0 0 57.2 57.2" enable-background="new 0 0 57.2 57.2"
	 xml:space="preserve">
<defs>
</defs>
<g>
	<circle fill="#594A42" cx="28.6" cy="28.6" r="28.6"/>
	<g>
		<path fill="#FFFFFF" d="M17.7,27.6c-0.2,0.1-0.4,0.5-0.3,1.1c0.1,0.6,0.8,3.5,1.3,4.5c0.5,1,1.4,2,2,2.5c0.3,0.2,0.2,0.3,0.4,0.6
			c0.1,0.3,0.5,1.2,0.7,1.3c0,0.1,0,0.1,0,0.3c0,0.1,0,7.5,0,7.5s0.8,1.9,7,1.9c6.2,0,6.6-2.1,6.6-2.1s-0.5-7.7-0.6-8.9
			c-0.1-1.2,0-1.3,0-1.3s0.1-0.1,0.5-0.6c0.4-0.5,6.9-8.2,7.4-9.4c0.3-0.8,0.1-0.9-0.2-1.3c-0.4-0.6-2.5-6-4.4-7.3
			c-0.8-0.5-1,0-1.2,0.1c-0.5,0.2-2.6,1-3,1.2c-0.4,0.2-2,0.9-3,1.1c-1,0.2-2.1,0.3-2.2,0.7c-0.2,0.3-0.3,1.8,0.4,2.3
			c0.7,0.5,2,0.9,3,0.9c0.9,0,3-1.1,3.4-1.3c0,0,0.1,0.1,0.2,0.1c0,0,0.3,1.8,0.9,2.3c0,0-2.4,0.5-3.1,1c-0.7,0.5-1.3,0.7-2.5,2.5
			c-1.2,1.9-3.3,4.9-3.8,5.5c-0.4,0.6-1.2,0.6-0.5-0.3c0.7-0.9,1.6-2.2,2.2-3.2c0.6-1,1.5-1.9,1.6-2.4c0.1-0.5-0.4-0.8-1.2-0.8
			c-0.9,0-2.1,0.3-3.1,0.7c-0.3,0.1-1,0.5-1.4,0.8c-0.4,0.3-1.3,1.2-1.8,1.6c-0.6,0.5-1,1.2-1.5,0.7c-0.3-0.3-1.6-1-2.1-1.5
			C18.5,27.8,18.1,27.4,17.7,27.6z"/>
		<path fill="#FFFFFF" d="M17.2,22.6c-0.4,0.3-1.4,1.3-0.6,2.2c0.8,0.9,2.2,2.2,2.9,2.7c0.7,0.4,1.8,1.2,2.2,1.1
			c0.4-0.1,0.7-0.4,0.9-0.6c0.2-0.2,0.6-0.6,0.7-0.8c0-0.3-0.4-0.9-0.6-1.2c-0.2-0.4-1-1.5-1.7-2.1c-0.6-0.7-1-1-1.5-1.5
			C18.8,21.7,18,21.9,17.2,22.6z"/>
		<path fill="#FFFFFF" d="M21.1,18.7c-1,0.7-1.4,1.8-0.9,2.6c0.6,0.8,1.4,1.8,1.6,2.2c0.3,0.4,1.3,1.7,1.7,2.1
			c0.4,0.4,1.3,1.2,2.5,0.5c1.1-0.6,1.9-1.2,1.7-1.9c-0.1-0.7-0.7-1.3-1.2-1.9c-0.5-0.5-1.6-1.9-2-2.5c-0.4-0.5-0.3-0.4-0.4-0.6
			C23.9,18.7,22.7,17.6,21.1,18.7z"/>
		<path fill="#FFFFFF" d="M25.8,14.9c-0.7,0.5-1.3,2-0.7,2.9c0.5,1,1,1.8,1.5,2.2c0.5,0.4,0.6,0.3,0.7-0.4c0-0.7,0.2-1.2,0.8-1.3
			c0.5-0.2,1.4-0.4,1.7-0.5c0.3-0.2,1.1-0.4,0.3-1.1c-0.3-0.2-0.9-1-1.2-1.3c-0.3-0.4-0.5-0.9-0.7-1.1C28,14.1,26.8,14.2,25.8,14.9z
			"/>
		<path fill="#FFFFFF" d="M31.6,12.3c-0.8,0.3-2,1.3-1.4,2.5c0.6,1.2,0.9,2.1,1.9,2.1c1.1,0,1.2-0.1,1.7-0.3
			c0.5-0.2,2.2-0.8,1.6-1.8c-0.6-1-0.7-1.3-1-1.6C34.2,12.9,32.9,11.8,31.6,12.3z"/>
		<path fill="#FFFFFF" d="M29,24.7c-0.3,0.3-0.4,0.6,0.3,0.6c0.7,0,1.1,0,1.4,0c0.3,0.1,0.5-0.4,0.8-0.6c0.3-0.2,0.4-0.4,0.8-0.5
			c0.3-0.2-0.5-0.6-1.1-0.7c-0.5-0.1-1.3-0.2-1.5-0.2c-0.3,0,0,0.7-0.2,1C29.3,24.5,29,24.7,29,24.7z"/>
	</g>
</g>
</svg>
