<!-- Generator: Adobe Illustrator 19.2.1, SVG Export Plug-In  -->
<svg version="1.1"
	 xmlns="http://www.w3.org/2000/svg" xmlns:xlink="http://www.w3.org/1999/xlink" xmlns:a="http://ns.adobe.com/AdobeSVGViewerExtensions/3.0/"
	 x="0px" y="0px" width="26.7px" height="24.3px" viewBox="0 0 26.7 24.3" enable-background="new 0 0 26.7 24.3"
	 xml:space="preserve">
<defs>
</defs>
<g>
	<path fill="#FBB040" d="M26,23.1h-0.5V5.4c0-0.4-0.3-0.8-0.8-0.8H13.6v1.5h10.3v17h-2.1l0,0h-1.4l0,0h-2l0,0H17l0,0h-2l0,0h-1.4
		l0,0h-2V0.8c0-0.4-0.4-0.8-0.8-0.8H2.1C1.7,0,1.3,0.4,1.3,0.8v22.3H0.8L0,24.3h26.7L26,23.1z M2.7,2.3h7.4v1.8H2.7V2.3z M2.7,6h7.4
		v1.8H2.7V6z M2.7,9.7h7.4v1.8H2.7V9.7z M2.7,13.4h7.4v1.8H2.7V13.4z M2.7,17.1h7.4v1.8H2.7V17.1z M5,20.8h2.8v2.2H5L5,20.8z"/>
	<path fill="#FBB040" d="M14.4,6.1v2.2h1.4v1.4h-1.4V12h1.4v1.4h-1.4v2.2h1.4v1.4h-1.4v2.2h1.4v3.8h2v-3.8h1.4v3.8h2v-3.8h1.4v3.8
		h2.1v-17H14.4z M19.2,17.1h-1.4v-1.4h1.4V17.1z M19.2,13.4h-1.4V12h1.4V13.4z M19.2,9.8h-1.4V8.4h1.4V9.8z M22.7,17.1h-1.4v-1.4
		h1.4V17.1z M22.7,13.4h-1.4V12h1.4V13.4z M22.7,9.8h-1.4V8.4h1.4V9.8z"/>
</g>
<rect x="12.7" y="4.6" fill="#FBB040" width="1.8" height="18.5"/>
</svg>
