<!-- Generator: Adobe Illustrator 19.2.1, SVG Export Plug-In  -->
<svg version="1.1"
	 xmlns="http://www.w3.org/2000/svg" xmlns:xlink="http://www.w3.org/1999/xlink" xmlns:a="http://ns.adobe.com/AdobeSVGViewerExtensions/3.0/"
	 x="0px" y="0px" width="26.4px" height="35.1px" viewBox="0 0 26.4 35.1" enable-background="new 0 0 26.4 35.1"
	 xml:space="preserve">
<defs>
</defs>
<g>
	<path fill="#594A42" d="M1.5,15.4c-0.2,0.1-0.4,0.5-0.3,1.1c0.1,0.6,0.8,3.5,1.3,4.5c0.5,1,1.4,2,2,2.5c0.3,0.2,0.2,0.3,0.4,0.6
		c0.1,0.3,0.5,1.2,0.7,1.3c0,0.1,0,0.1,0,0.3c0,0.1,0,7.5,0,7.5s0.8,1.9,7,1.9c6.2,0,6.6-2.1,6.6-2.1s-0.5-7.7-0.6-8.9
		c-0.1-1.2,0-1.3,0-1.3s0.1-0.1,0.5-0.6c0.4-0.5,6.9-8.2,7.4-9.4c0.3-0.8,0.1-0.9-0.2-1.3c-0.4-0.6-2.5-6-4.4-7.3
		c-0.8-0.5-1,0-1.2,0.1c-0.5,0.2-2.6,1-3,1.2c-0.4,0.2-2,0.9-3,1.1c-1,0.2-2.1,0.3-2.2,0.7c-0.2,0.3-0.3,1.8,0.4,2.3
		c0.7,0.5,2,0.9,3,0.9c0.9,0,3-1.1,3.4-1.3c0,0,0.1,0.1,0.2,0.1c0,0,0.3,1.8,0.9,2.3c0,0-2.4,0.5-3.1,1c-0.7,0.5-1.3,0.7-2.5,2.5
		c-1.2,1.9-3.3,4.9-3.8,5.5c-0.4,0.6-1.2,0.6-0.5-0.3c0.7-0.9,1.6-2.2,2.2-3.2c0.6-1,1.5-1.9,1.6-2.4c0.1-0.5-0.4-0.8-1.2-0.8
		c-0.9,0-2.1,0.3-3.1,0.7c-0.3,0.1-1,0.5-1.4,0.8c-0.4,0.3-1.3,1.2-1.8,1.6c-0.6,0.5-1,1.2-1.5,0.7c-0.3-0.3-1.6-1-2.1-1.5
		C2.2,15.6,1.9,15.2,1.5,15.4z"/>
	<path fill="#594A42" d="M0.9,10.5c-0.4,0.3-1.4,1.3-0.6,2.2c0.8,0.9,2.2,2.2,2.9,2.7c0.7,0.4,1.8,1.2,2.2,1.1
		c0.4-0.1,0.7-0.4,0.9-0.6C6.5,15.6,6.9,15.2,7,15c0-0.3-0.4-0.9-0.6-1.2c-0.2-0.4-1-1.5-1.7-2.1c-0.6-0.7-1-1-1.5-1.5
		C2.5,9.5,1.8,9.8,0.9,10.5z"/>
	<path fill="#594A42" d="M4.9,6.6C3.9,7.2,3.4,8.4,4,9.1c0.6,0.8,1.4,1.8,1.6,2.2C5.9,11.7,7,13,7.4,13.4c0.4,0.4,1.3,1.2,2.5,0.5
		c1.1-0.6,1.9-1.2,1.7-1.9c-0.1-0.7-0.7-1.3-1.2-1.9c-0.5-0.5-1.6-1.9-2-2.5C8.1,7.1,8.2,7.3,8,7C7.6,6.5,6.4,5.4,4.9,6.6z"/>
	<path fill="#594A42" d="M9.6,2.7c-0.7,0.5-1.3,2-0.7,2.9c0.5,1,1,1.8,1.5,2.2c0.5,0.4,0.6,0.3,0.7-0.4c0-0.7,0.2-1.2,0.8-1.3
		c0.5-0.2,1.4-0.4,1.7-0.5c0.3-0.2,1.1-0.4,0.3-1.1c-0.3-0.2-0.9-1-1.2-1.3c-0.3-0.4-0.5-0.9-0.7-1.1C11.8,1.9,10.6,2,9.6,2.7z"/>
	<path fill="#594A42" d="M15.4,0.1c-0.8,0.3-2,1.3-1.4,2.5c0.6,1.2,0.9,2.1,1.9,2.1c1.1,0,1.2-0.1,1.7-0.3c0.5-0.2,2.2-0.8,1.6-1.8
		c-0.6-1-0.7-1.3-1-1.6C17.9,0.7,16.6-0.4,15.4,0.1z"/>
	<path fill="#594A42" d="M12.7,12.6c-0.3,0.3-0.4,0.6,0.3,0.6c0.7,0,1.1,0,1.4,0c0.3,0.1,0.5-0.4,0.8-0.6c0.3-0.2,0.4-0.4,0.8-0.5
		c0.3-0.2-0.5-0.6-1.1-0.7c-0.5-0.1-1.3-0.2-1.5-0.2c-0.3,0,0,0.7-0.2,1C13,12.3,12.7,12.6,12.7,12.6z"/>
</g>
</svg>
