<!-- Generator: Adobe Illustrator 19.2.1, SVG Export Plug-In  -->
<svg version="1.1"
	 xmlns="http://www.w3.org/2000/svg" xmlns:xlink="http://www.w3.org/1999/xlink" xmlns:a="http://ns.adobe.com/AdobeSVGViewerExtensions/3.0/"
	 x="0px" y="0px" width="57.2px" height="57.2px" viewBox="0 0 57.2 57.2" enable-background="new 0 0 57.2 57.2"
	 xml:space="preserve">
<defs>
</defs>
<g>
	<circle fill="#1C75BC" cx="28.6" cy="28.6" r="28.6"/>
	<g>
		<path fill="#FFFFFF" d="M28.6,20.6c0,0.2-0.1,0.5-0.4,0.6c-1.3,0.3-2.8,0.8-3.9,1.6c-3.1,2.2,0.8,7.5,2.6,9.2
			c0.2,0.2,0.2,0.6,0,0.8c-0.5,0.5-1,0.9-1.5,1.3c-0.6,0.4-1.4-0.4-0.8-0.8c0.4-0.3,0.7-0.6,1.1-0.9c-2.1-2.1-4.8-6.3-3.3-9.1
			c1-1.9,3.6-2.6,5.5-3.1c0.3-0.1,0.5,0,0.6,0.2c-0.5-1.2-1-2.4-1.7-3.6c-1.6,2.8-6.7,3.9-9.4,4.3c-3,0.4-6,0.2-8.9,0.1
			c1.4,9.9,7.3,21.6,18.8,20.4c5.7-1.3,3.9-10.2,3.1-14.2C29.9,24.8,29.4,22.7,28.6,20.6z M25.6,25.7c-0.2,0.3-0.3,0.5-0.3,0.8
			c-0.1,0.7-1.2,0.4-1.1-0.3c0.1-0.5,0.4-1.1,0.8-1.4c0.9-0.8,2-0.7,3.1-0.3c0.7,0.3,0.4,1.4-0.3,1.1C27.1,25.3,26.1,25.1,25.6,25.7
			z M12.7,25.9c1.7-1.7,4.2-2.2,6.5-1.7c0.7,0.2,0.4,1.3-0.3,1.1c-1.9-0.4-4,0-5.4,1.4C13,27.3,12.2,26.4,12.7,25.9z M19.3,27.8
			c-1.2-0.3-2.6,0-2.9,1.2c-0.2,0.7-1.3,0.4-1.1-0.3c0.5-1.9,2.6-2.4,4.3-2C20.4,26.9,20.1,28,19.3,27.8z M27.4,37.9
			c-2.5,1.6-6.2,1-7.8-0.9c0,0,0.1-0.3,0.2-0.3c2.7-0.4,7.4-1.6,9.6-3.1c0.1-0.1,0.3,0,0.3,0.2C29.7,35.5,28.9,36.9,27.4,37.9z"/>
		<path fill="#FFFFFF" d="M47.8,19.3c0,0,0,0-2.5,0.7c-11.5,3.2-14.4-1.4-15.1-1c-0.1,0.1-0.2,0.6-0.4,1.4c0.6,1.5,1,3,1.4,4.6
			c1.8-0.4,4.6-2.1,5,0.8c0.2,1.4,0.2,2.9-0.2,4.4c-0.2,0.8-0.5,1.6-1,2.4c-0.2,0.3,0.6,0.6,0.7,0.8c0.5,0.5-0.3,1.3-0.8,0.8
			c-0.4-0.4-1.4-0.6-1.3-1.4c0.4-1.5,1.3-2.7,1.5-4.4c0.1-1,0.1-4.1-1.8-2.9c-0.6,0.4-1.3,0.6-1.9,0.8c0.1,0.2,0.1,0.5,0.1,0.7
			c0.1,0,0.1,0.1,0.2,0.1c0.7,0.5,1.3,0.6,1.9,0c0.5-0.5,1.4,0.3,0.8,0.8c-0.5,0.4-1.1,0.9-1.8,0.8c-0.3,0-0.6-0.1-0.9-0.3
			c0.1,0.9,0.3,1.9,0.4,2.8c0.1,0.9,0.2,2,0.2,3.1c1.1-0.1,2.2,0.3,3.2,0.6c0.7,0.2,1.5,0.4,2,0.9c0.5,0.5,1.8,1.8,0.7,2.4
			c-0.1,0.1-0.3,0.1-0.4,0.1c-1.1,0-1.8-0.5-2.7-1.1c-0.7-0.4-1.5-0.8-2.3-0.8c-0.2,0-0.4,0-0.6,0c-0.1,1.1-0.4,2.1-0.8,3
			c0.9,1.4,2.1,2.3,3.8,2.1C49.9,40,47.8,19.3,47.8,19.3z M42.3,29.4c-1.2,0.4-4.2-0.3-4-2c0.1-0.7,1.2-0.4,1.1,0.3
			c0-0.2,0-0.1,0.2,0c0.1,0.1,0.2,0.1,0.3,0.2c0.1,0.1,0.3,0.1,0.4,0.2c0.5,0.2,1.1,0.4,1.7,0.2C42.7,28.1,43,29.2,42.3,29.4z
			 M43.5,27.4c-2-0.4-4-0.7-5.7-2c-0.6-0.5,0.2-1.3,0.8-0.8c1.5,1.2,3.4,1.3,5.1,1.7C44.5,26.4,44.2,27.5,43.5,27.4z"/>
	</g>
</g>
</svg>
