<!-- Generator: Adobe Illustrator 19.2.1, SVG Export Plug-In  -->
<svg version="1.1"
	 xmlns="http://www.w3.org/2000/svg" xmlns:xlink="http://www.w3.org/1999/xlink" xmlns:a="http://ns.adobe.com/AdobeSVGViewerExtensions/3.0/"
	 x="0px" y="0px" width="39.4px" height="24.9px" viewBox="0 0 39.4 24.9" enable-background="new 0 0 39.4 24.9"
	 xml:space="preserve">
<defs>
</defs>
<g>
	<g>
		<path fill="#1C75BC" d="M20.1,4c0,0.2-0.1,0.5-0.4,0.6c-1.3,0.3-2.8,0.8-3.9,1.6c-3.1,2.2,0.8,7.5,2.6,9.2c0.2,0.2,0.2,0.6,0,0.8
			c-0.5,0.5-1,0.9-1.5,1.3c-0.6,0.4-1.4-0.4-0.8-0.8c0.4-0.3,0.7-0.6,1.1-0.9c-2.1-2.1-4.8-6.3-3.3-9.1c1-1.9,3.6-2.6,5.5-3.1
			c0.3-0.1,0.5,0,0.6,0.2c-0.5-1.2-1-2.4-1.7-3.6c-1.6,2.8-6.7,3.9-9.4,4.3C6,4.8,3,4.6,0,4.4C1.4,14.3,7.3,26,18.8,24.8
			c5.7-1.3,3.9-10.2,3.1-14.2C21.5,8.3,20.9,6.1,20.1,4z M17.1,9.1c-0.2,0.3-0.3,0.5-0.3,0.8c-0.1,0.7-1.2,0.4-1.1-0.3
			c0.1-0.5,0.4-1.1,0.8-1.4c0.9-0.8,2-0.7,3.1-0.3c0.7,0.3,0.4,1.4-0.3,1.1C18.6,8.7,17.6,8.5,17.1,9.1z M4.3,9.3
			C6,7.6,8.5,7.1,10.8,7.6c0.7,0.2,0.4,1.3-0.3,1.1c-1.9-0.4-4,0-5.4,1.4C4.6,10.7,3.7,9.9,4.3,9.3z M10.9,11.2
			c-1.2-0.3-2.6,0-2.9,1.2c-0.2,0.7-1.3,0.4-1.1-0.3c0.5-1.9,2.6-2.4,4.3-2C11.9,10.3,11.6,11.4,10.9,11.2z M18.9,21.3
			c-2.5,1.6-6.2,1-7.8-0.9c0,0,0.1-0.3,0.2-0.3c2.7-0.4,7.4-1.6,9.6-3.1c0.1-0.1,0.3,0,0.3,0.2C21.2,18.9,20.4,20.3,18.9,21.3z"/>
		<path fill="#1C75BC" d="M39.3,2.7c0,0,0,0-2.5,0.7c-11.5,3.2-14.4-1.4-15.1-1c-0.1,0.1-0.2,0.6-0.4,1.4c0.6,1.5,1,3,1.4,4.6
			c1.8-0.4,4.6-2.1,5,0.8c0.2,1.4,0.2,2.9-0.2,4.4c-0.2,0.8-0.5,1.6-1,2.4c-0.2,0.3,0.6,0.6,0.7,0.8c0.5,0.5-0.3,1.3-0.8,0.8
			C26,17,25,16.8,25.2,16.1c0.4-1.5,1.3-2.7,1.5-4.4c0.1-1,0.1-4.1-1.8-2.9c-0.6,0.4-1.3,0.6-1.9,0.8C23,9.7,23,10,23.1,10.2
			c0.1,0,0.1,0.1,0.2,0.1c0.7,0.5,1.3,0.6,1.9,0c0.5-0.5,1.4,0.3,0.8,0.8c-0.5,0.4-1.1,0.9-1.8,0.8c-0.3,0-0.6-0.1-0.9-0.3
			c0.1,0.9,0.3,1.9,0.4,2.8c0.1,0.9,0.2,2,0.2,3.1c1.1-0.1,2.2,0.3,3.2,0.6c0.7,0.2,1.5,0.4,2,0.9c0.5,0.5,1.8,1.8,0.7,2.4
			c-0.1,0.1-0.3,0.1-0.4,0.1c-1.1,0-1.8-0.5-2.7-1.1c-0.7-0.4-1.5-0.8-2.3-0.8c-0.2,0-0.4,0-0.6,0c-0.1,1.1-0.4,2.1-0.8,3
			c0.9,1.4,2.1,2.3,3.8,2.1C41.5,23.4,39.3,2.7,39.3,2.7z M33.8,12.8c-1.2,0.4-4.2-0.3-4-2c0.1-0.7,1.2-0.4,1.1,0.3
			c0-0.2,0-0.1,0.2,0c0.1,0.1,0.2,0.1,0.3,0.2c0.1,0.1,0.3,0.1,0.4,0.2c0.5,0.2,1.1,0.4,1.7,0.2C34.2,11.5,34.5,12.6,33.8,12.8z
			 M35,10.8c-2-0.4-4-0.7-5.7-2c-0.6-0.5,0.2-1.3,0.8-0.8c1.5,1.2,3.4,1.3,5.1,1.7C36.1,9.8,35.8,10.9,35,10.8z"/>
	</g>
</g>
</svg>
