<!-- Generator: Adobe Illustrator 19.2.1, SVG Export Plug-In  -->
<svg version="1.1"
	 xmlns="http://www.w3.org/2000/svg" xmlns:xlink="http://www.w3.org/1999/xlink" xmlns:a="http://ns.adobe.com/AdobeSVGViewerExtensions/3.0/"
	 x="0px" y="0px" width="57.2px" height="57.2px" viewBox="0 0 57.2 57.2" enable-background="new 0 0 57.2 57.2"
	 xml:space="preserve">
<defs>
</defs>
<g>
	<circle fill="#FBB040" cx="28.6" cy="28.6" r="28.6"/>
	<g>
		<path fill="#FFFFFF" d="M41.6,40.3h-0.5V22.5c0-0.4-0.3-0.8-0.8-0.8H29.3v1.5h10.3v17h-2.1l0,0h-1.4l0,0h-2l0,0h-1.4l0,0h-2l0,0
			h-1.4l0,0h-2V18c0-0.4-0.4-0.8-0.8-0.8h-8.7c-0.4,0-0.8,0.4-0.8,0.8v22.3h-0.5l-0.8,1.2h26.7L41.6,40.3z M18.4,19.5h7.4v1.8h-7.4
			V19.5z M18.4,23.2h7.4V25h-7.4V23.2z M18.4,26.9h7.4v1.8h-7.4V26.9z M18.4,30.6h7.4v1.8h-7.4V30.6z M18.4,34.3h7.4v1.8h-7.4V34.3z
			 M20.7,38h2.8v2.2h-2.8L20.7,38z"/>
		<path fill="#FFFFFF" d="M30.1,23.3v2.2h1.4v1.4h-1.4v2.3h1.4v1.4h-1.4v2.2h1.4v1.4h-1.4v2.2h1.4v3.8h2v-3.8h1.4v3.8h2v-3.8h1.4
			v3.8h2.1v-17H30.1z M34.9,34.2h-1.4v-1.4h1.4V34.2z M34.9,30.6h-1.4v-1.4h1.4V30.6z M34.9,26.9h-1.4v-1.4h1.4V26.9z M38.3,34.2
			h-1.4v-1.4h1.4V34.2z M38.3,30.6h-1.4v-1.4h1.4V30.6z M38.3,26.9h-1.4v-1.4h1.4V26.9z"/>
	</g>
	<rect x="28.3" y="21.8" fill="#FFFFFF" width="1.8" height="18.5"/>
</g>
</svg>
